<svg xmlns="http://www.w3.org/2000/svg" viewBox="0 0 1200 320" role="img" aria-labelledby="title desc">
  <title id="title">EV Green Station</title>
  <desc id="desc">Banner nÁn gradient vÛi biÃu t°ãng s¡c xe iÇn</desc>
  <defs>
    <linearGradient id="bg" x1="0%" y1="0%" x2="100%" y2="100%">
      <stop offset="0%" style="stop-color:#1a2e1a"/>
      <stop offset="50%" style="stop-color:#2d4a32"/>
      <stop offset="100%" style="stop-color:#4a6b4f"/>
    </linearGradient>
    <linearGradient id="accent" x1="0%" y1="0%" x2="100%" y2="0%">
      <stop offset="0%" style="stop-color:#7cb87c"/>
      <stop offset="100%" style="stop-color:#a8d5a8"/>
    </linearGradient>
    <filter id="glow" x="-20%" y="-20%" width="140%" height="140%">
      <feGaussianBlur stdDeviation="3" result="b"/>
      <feMerge><feMergeNode in="b"/><feMergeNode in="SourceGraphic"/></feMerge>
    </filter>
  </defs>
  <rect width="1200" height="320" fill="url(#bg)"/>
  <circle cx="980" cy="80" r="120" fill="#ffffff" opacity="0.04"/>
  <circle cx="200" cy="260" r="90" fill="#ffffff" opacity="0.03"/>
  <g transform="translate(88,72)">
    <rect x="0" y="40" width="120" height="160" rx="16" fill="#1e3324" stroke="url(#accent)" stroke-width="2"/>
    <rect x="24" y="16" width="72" height="40" rx="8" fill="#2a4530" stroke="#7cb87c" stroke-width="1.5" opacity="0.9"/>
    <path d="M56 56 L64 72 L48 72 Z" fill="#a8d5a8"/>
    <rect x="48" y="100" width="24" height="8" rx="2" fill="url(#accent)" filter="url(#glow)"/>
    <path d="M100 120 Q140 100 160 140 T200 160" fill="none" stroke="#7cb87c" stroke-width="3" stroke-linecap="round" opacity="0.6"/>
  </g>
  <text x="260" y="130" fill="#f4f8f4" font-family="system-ui, -apple-system, Segoe UI, sans-serif" font-size="42" font-weight="700" letter-spacing="-0.02em">EV Green Station</text>
  <text x="260" y="175" fill="#b8d4b8" font-family="system-ui, -apple-system, Segoe UI, sans-serif" font-size="20" font-weight="500">NÁn t£ng qu£n lý tr¡m s¡c " QR " OCPP</text>
  <rect x="260" y="200" width="280" height="4" rx="2" fill="url(#accent)" opacity="0.85"/>
  <g transform="translate(900,200)" opacity="0.85">
    <path d="M0 0 L24 12 L0 24 Z" fill="#a8d5a8"/>
    <rect x="28" y="6" width="8" height="12" rx="1" fill="#7cb87c"/>
  </g>
</svg>
